<?xml version="1.0" encoding="utf-8"?>
<svg xmlns="http://www.w3.org/2000/svg" width="109" height="105" viewBox="0 0 109 105">
  <g>
    <path d="M 18.45 77.72 C 17.78 75.97 18.62 70.96 24.47 42 C 27.08 29.07 29.69 17.92 30.27 17.2 C 31.1 16.19 36.58 15.97 55.41 16.2 C 78.76 16.49 79.6 16.57 82.75 18.82 C 86.93 21.8 87.2 26.77 83.48 32.25 C 80.74 36.27 69.72 42.23 58.76 45.59 C 50.27 48.21 50.21 47.84 57.38 36.5 C 59.81 32.65 61.46 29.14 61.05 28.7 C 60.64 28.26 57.2 28.04 53.4 28.2 L 46.5 28.5 L 43.29 38 C 41.52 43.23 40.06 47.9 40.04 48.39 C 40.02 48.88 42.24 49.01 44.97 48.69 C 47.89 48.34 50.2 48.52 50.57 49.11 C 51.39 50.45 46.19 58.24 44.97 57.48 C 44.45 57.16 48.088 52.888 48.358 53.608 C 48.628 54.318 43.66 61.52 42.01 64 C 40.36 66.47 39.45 68.65 39.98 68.82 C 40.51 69 44.04 66.53 47.84 63.32 C 71.13 43.67 70.91 43.82 74.31 44.54 C 84.55 46.71 85.58 58.53 76.27 67.1 C 71.8 71.22 62.87 75.855 61.33 74.905 C 60.86 74.615 62.97 73.62 62.69 74.37 C 61.89 76.44 49.27 78.31 33.24 78.73 C 21.78 79.03 18.87 78.83 18.45 77.72 Z" style="fill: rgb(255, 255, 255);"/>
  </g>
</svg>